<?xml version="1.0" standalone="no"?>
<!DOCTYPE svg PUBLIC "-//W3C//DTD SVG 20010904//EN"
 "http://www.w3.org/TR/2001/REC-SVG-20010904/DTD/svg10.dtd">
<svg version="1.0" xmlns="http://www.w3.org/2000/svg"
 width="225.000000pt" height="225.000000pt" viewBox="0 0 225.000000 225.000000"
 preserveAspectRatio="xMidYMid meet">
<metadata>
Created by potrace 1.11, written by Peter Selinger 2001-2013
</metadata>
<g transform="translate(0.000000,225.000000) scale(0.100000,-0.100000)"
fill="#000000" stroke="none">
<path d="M1039 1948 c-158 -18 -285 -82 -405 -202 -88 -88 -138 -169 -176
-281 -20 -60 -23 -90 -23 -210 0 -120 3 -150 23 -210 68 -206 226 -368 433
-447 80 -31 90 -32 229 -33 127 0 154 3 215 24 118 39 193 87 285 180 139 140
200 287 200 486 0 110 -16 194 -54 279 -126 285 -418 451 -727 414z m246 -29
c60 -14 71 -22 77 -54 5 -21 1 -24 -31 -28 -27 -3 -23 -4 18 -5 47 -2 64 -9
137 -57 88 -59 114 -86 114 -120 0 -12 3 -16 8 -9 4 6 19 13 35 16 33 6 50
-15 102 -124 51 -110 79 -279 59 -356 -6 -19 -12 -23 -42 -20 -33 3 -35 6 -49
57 -7 30 -30 84 -50 120 -19 36 -39 86 -43 111 -7 43 -7 43 -9 10 -1 -40 13
-33 -213 -101 l-56 -17 -34 35 c-18 19 -53 48 -78 64 -25 17 -32 20 -15 7 16
-13 54 -45 83 -73 l54 -50 -6 -65 c-14 -159 -25 -222 -43 -236 -31 -25 -95
-56 -163 -81 -40 -14 -51 -21 -30 -17 19 3 77 26 128 51 l94 46 58 -28 c32
-15 76 -44 99 -64 l40 -36 -9 -50 c-24 -127 -27 -131 -99 -168 -69 -37 -188
-77 -225 -77 -28 1 -129 42 -171 71 -38 27 -38 33 -3 151 11 37 17 72 14 77
-4 5 4 12 16 14 14 3 8 4 -12 4 -42 -1 -100 31 -192 108 l-68 55 -2 83 -2 82
-5 -79 -6 -79 -48 -34 c-27 -19 -64 -43 -84 -54 l-36 -20 -31 28 -31 28 26
-30 c15 -16 38 -56 53 -89 48 -108 95 -175 137 -196 48 -25 151 -50 207 -50
28 0 64 -11 105 -31 34 -18 80 -38 102 -45 37 -13 32 -13 -75 -10 -96 3 -128
8 -190 31 -79 29 -180 88 -180 105 0 5 -3 9 -7 8 -31 -9 -145 122 -198 229
-34 69 -71 191 -61 201 3 3 6 1 6 -4 0 -6 7 -19 15 -30 9 -10 5 3 -10 31 -28
55 -31 94 -14 195 9 60 15 70 67 125 l57 60 -54 -50 c-63 -59 -63 -48 -1 80
83 171 268 317 450 354 30 6 64 13 75 15 33 8 187 -2 240 -15z m508 -801 c-12
-64 -44 -144 -85 -212 -70 -119 -208 -239 -201 -176 4 37 35 157 46 177 7 12
50 71 97 132 77 101 88 111 117 111 31 0 32 -1 26 -32z"/>
<path d="M1238 1823 c6 -2 18 -2 25 0 6 3 1 5 -13 5 -14 0 -19 -2 -12 -5z"/>
<path d="M786 1758 c-28 -31 -67 -81 -86 -112 -19 -30 -42 -58 -50 -61 -8 -3
-28 -16 -45 -30 l-30 -26 42 25 41 25 56 -74 c31 -41 65 -82 76 -93 12 -11 18
-26 15 -35 -4 -8 11 1 32 22 41 38 199 111 241 111 12 0 41 -9 63 -21 23 -11
38 -16 35 -11 -3 5 -19 15 -36 22 -27 11 -30 17 -32 64 -2 64 1 129 8 182 l5
41 -83 11 c-46 7 -110 13 -142 15 l-59 2 -51 -57z"/>
<path d="M1198 1813 c7 -3 16 -2 19 1 4 3 -2 6 -13 5 -11 0 -14 -3 -6 -6z"/>
<path d="M1613 1585 c0 -22 2 -30 4 -17 2 12 2 30 0 40 -3 9 -5 -1 -4 -23z"/>
<path d="M782 1280 c0 -14 2 -19 5 -12 2 6 2 18 0 25 -3 6 -5 1 -5 -13z"/>
<path d="M510 1066 c0 -2 8 -10 18 -17 15 -13 16 -12 3 4 -13 16 -21 21 -21
13z"/>
<path d="M809 420 c-126 -8 -254 -27 -281 -42 -87 -45 175 -80 597 -80 423 0
684 35 598 80 -79 41 -571 63 -914 42z"/>
</g>
</svg>
